<svg xmlns="http://www.w3.org/2000/svg" width="109.5" height="23.99" viewBox="0 0 109.5 23.99">
  <g id="Layer_2" data-name="Layer 2">
    <g id="Layer_1-2" data-name="Layer 1">
      <g>
        <path d="M4.92,0c.69,0,1.44.05,1.73.07V1.12h0c-.46,0-.94-.06-1.42-.06-1.36,0-1.78.3-1.78,1.31V4.08H8.22V9.92c0,1.6,1.64,2.31,3.84,2.31,2.86,0,4.76-1.58,4.76-3.72V4.08h4.69V1.16L23,.55V4.08h5.37V9.92c0,1.6,2,2.31,4.16,2.31,2.86,0,4.33-1.84,4.38-3V4.08h1.47v9H37V11.74l-.21.29a6,6,0,0,1-4.29,1.38c-3.15,0-5.45-1-5.45-3.45V5.17H23V11c0,.84.39,1.12,1.54,1.12a6.16,6.16,0,0,0,1.32-.1v1.06a12.86,12.86,0,0,1-1.49.1c-2.43,0-2.9-.81-2.9-2.2V5.17H18.23v7.9H16.82V11.74l-.2.29c-.74.87-2.45,1.38-4.56,1.38-3.14,0-5.25-1-5.25-3.45V5.17H3.43v7.9H1.89V5.17H0V4.08H1.89V2.23C1.89.65,2.77,0,4.92,0" style="fill: #fff"/>
        <path d="M46.56,3.88a3.56,3.56,0,0,1,.78.07V5.24a7.85,7.85,0,0,0-1.28,0,3.52,3.52,0,0,0-3.67,3.64v4.22H40.85v-9h1.54V5.67c1.24-1.73,2.73-1.7,4.16-1.79" style="fill: #fff"/>
        <path d="M49,7.87h8.76l0-.15C57.09,5.15,54.42,5,53.3,5c-1.86,0-3.86.62-4.29,2.72l0,.15m4.21-4.06c1.83,0,6.08.62,6.08,5.14H49v.13c.07,1.89,1.85,3.21,4.33,3.21s3.93-.66,4.66-2.14h0l1.12.46c-.67,1.19-1.62,2.87-5.78,2.87-4.33,0-5.87-2.56-5.87-4.84s1.41-4.83,5.74-4.83" style="fill: #fff"/>
        <polyline points="75.02 4.21 75.02 13.07 73.61 13.07 73.61 4.21 75.02 4.21" style="fill: #fff"/>
        <path d="M82.91,12.28c2.62,0,4.39-1.69,4.39-3.82,0-1.73-1.4-3.59-4.52-3.59-2.68,0-4.35,1.45-4.35,3.59,0,2.94,2.44,3.82,4.48,3.82M82.7,3.81c2,0,3.46.4,4.56,1.63V4.15h1.37v8.58c0,3.56-3.59,4.09-5.8,4.09-4.61,0-5-2.23-5.09-2.94h1.38c.21.9.45,1.8,3.77,1.8,2.82,0,4.37-.95,4.37-3v-1c-.64,1-2.26,1.7-4.72,1.7-2.71,0-5.61-1.54-5.61-4.94,0-2.09,1.51-4.65,5.77-4.65" style="fill: #fff"/>
        <path d="M92.27.22V5.45c.62-1,2.65-1.64,4.88-1.64,3.32,0,4.93,1.32,4.93,3.78v5.48h-1.49V7.37C100.59,5.77,99.33,5,97,5c-3,0-4.75,1.13-4.75,3.27v4.8H90.78V.22h1.49" style="fill: #fff"/>
        <path d="M106.77.35V4.21h2.73v1h-2.73V11c0,.84.45,1.12,1.6,1.12a4.1,4.1,0,0,0,1.13-.1v1.16a10.07,10.07,0,0,1-1.29.13c-2,0-2.91-.94-2.91-2.33V5.17h-2v-1h2V1l1.47-.62" style="fill: #fff"/>
        <path d="M66.61,7.92c-3.27,0-4.39-.47-4.39-1.41S63.88,5.07,66,5.07s3.17.26,3.65,1.22L71.08,6C70.34,4.48,68.62,3.88,66,3.88c-2.91,0-5.16.81-5.16,2.69s1.44,2.55,4.8,2.55c3.84,0,4.46.64,4.46,1.48,0,1.17-1.43,1.69-3.92,1.69-1.85,0-3.2-.22-4.15-1.3l-.26-.41-1.38.36c.59,1.43,1.9,2.54,5.79,2.54,3.31,0,5.32-1,5.32-2.94s-1.72-2.62-4.86-2.62Z" style="fill: #fff"/>
        <path d="M2.44,18.61a1.94,1.94,0,0,1,1.54.7l-.26.2a1.67,1.67,0,0,0-1.28-.58,1.81,1.81,0,0,0,0,3.61,1.78,1.78,0,0,0,1.2-.49v-1H2.09v-.32H4v1.43a2.06,2.06,0,0,1-1.55.68,2.13,2.13,0,0,1,0-4.25Z" style="fill: #fff"/>
        <rect x="4.94" y="18.68" width="0.32" height="4.1" style="fill: #fff"/>
        <path d="M8.66,21.3A1.15,1.15,0,0,0,7.57,20,1.15,1.15,0,0,0,6.49,21.3a1.15,1.15,0,0,0,1.08,1.27A1.15,1.15,0,0,0,8.66,21.3Zm-2.52,0A1.44,1.44,0,1,1,9,21.3a1.44,1.44,0,1,1-2.86,0Z" style="fill: #fff"/>
        <path d="M11.19,22.57c.66,0,1-.55,1-1.27s-.38-1.27-1-1.27a1.21,1.21,0,0,0-1,.54V22A1.2,1.2,0,0,0,11.19,22.57Zm-1.3-3.89h.32v1.61a1.25,1.25,0,0,1,1-.55c.8,0,1.33.62,1.33,1.56s-.54,1.56-1.33,1.56a1.26,1.26,0,0,1-1-.55v.47H9.89Z" style="fill: #fff"/>
        <path d="M15.35,21.55a1.12,1.12,0,0,0-.9-.41.74.74,0,1,0,0,1.47,1.12,1.12,0,0,0,.9-.41Zm0,.88a1.28,1.28,0,0,1-1,.43,1,1,0,0,1-1-1,1,1,0,0,1,1-1,1.27,1.27,0,0,1,1,.42V20.7a.71.71,0,0,0-.8-.68,1.15,1.15,0,0,0-.93.44l-.17-.22a1.43,1.43,0,0,1,1.13-.5c.61,0,1.09.29,1.09,1v2.09h-.32Z" style="fill: #fff"/>
        <rect x="16.73" y="18.68" width="0.32" height="4.1" style="fill: #fff"/>
        <path d="M19.61,21a.38.38,0,1,1,.75,0,.38.38,0,0,1-.37.37.33.33,0,0,1-.27-.11.36.36,0,0,1-.11-.26Z" style="fill: #fff"/>
        <path d="M24.21,22.46a1.62,1.62,0,0,0,1.7-1.72A1.63,1.63,0,0,0,24.21,19h-1v3.46ZM22.9,18.68h1.31a2.05,2.05,0,1,1,0,4.1H22.9Z" style="fill: #fff"/>
        <path d="M27.21,19.81h.31v3h-.31Zm-.09-.75c0-.16.08-.24.25-.24a.25.25,0,0,1,0,.49.22.22,0,0,1-.25-.25Z" style="fill: #fff"/>
        <path d="M30.77,20.57a1.18,1.18,0,0,0-1-.54c-.66,0-1,.55-1,1.27s.38,1.26,1,1.26a1.2,1.2,0,0,0,1-.54Zm-2,2.73a1.17,1.17,0,0,0,1,.41.9.9,0,0,0,1-.95v-.47a1.3,1.3,0,0,1-1,.56,1.37,1.37,0,0,1-1.33-1.55,1.37,1.37,0,0,1,1.33-1.56,1.25,1.25,0,0,1,1,.55v-.48h.33v2.94A1.18,1.18,0,0,1,29.76,24a1.42,1.42,0,0,1-1.17-.45Z" style="fill: #fff"/>
        <path d="M32.15,19.81h.32v3h-.32Zm-.08-.75a.21.21,0,0,1,.24-.24.25.25,0,1,1,0,.49.22.22,0,0,1-.24-.25Z" style="fill: #fff"/>
        <path d="M33.59,22.21V20.1H33.1v-.29h.49V19h.33v.81h.6v.29h-.6v2.06c0,.24.1.41.31.41a.48.48,0,0,0,.33-.14l.12.24a.68.68,0,0,1-.5.19c-.4,0-.59-.24-.59-.65Z" style="fill: #fff"/>
        <path d="M37.17,21.55a1.11,1.11,0,0,0-.89-.41.74.74,0,1,0,0,1.47,1.11,1.11,0,0,0,.89-.41Zm0,.88a1.28,1.28,0,0,1-1,.43,1,1,0,0,1-1-1,1,1,0,0,1,1-1,1.27,1.27,0,0,1,1,.42V20.7a.71.71,0,0,0-.8-.68,1.17,1.17,0,0,0-.93.44l-.17-.22a1.43,1.43,0,0,1,1.13-.5c.61,0,1.09.29,1.09,1v2.09h-.32Z" style="fill: #fff"/>
        <rect x="38.55" y="18.68" width="0.32" height="4.1" style="fill: #fff"/>
        <path d="M41.43,21a.38.38,0,1,1,.75,0,.38.38,0,0,1-.37.37.33.33,0,0,1-.27-.11A.36.36,0,0,1,41.43,21Z" style="fill: #fff"/>
        <path d="M46.22,19H45.07v1.77h1.15a.89.89,0,1,0,0-1.77ZM46,21.09h-.9v1.69h-.35v-4.1h1.53a1.16,1.16,0,0,1,1.25,1.2,1.12,1.12,0,0,1-1.14,1.18l1.19,1.72h-.43L46,21.09Z" style="fill: #fff"/>
        <path d="M48.42,21.15h2.16A1.09,1.09,0,0,0,49.49,20,1.11,1.11,0,0,0,48.42,21.15Zm1.08-1.41a1.42,1.42,0,0,1,1.4,1.57v.09H48.42a1.15,1.15,0,0,0,1.15,1.18,1.33,1.33,0,0,0,1-.41l.17.21a1.54,1.54,0,0,1-1.17.48,1.56,1.56,0,0,1,0-3.12Z" style="fill: #fff"/>
        <path d="M51.72,22.15a1.24,1.24,0,0,0,1,.44c.5,0,.79-.25.79-.59s-.4-.5-.83-.61-1-.25-1-.83.38-.82,1.06-.82a1.35,1.35,0,0,1,1.06.44l-.18.22a1.08,1.08,0,0,0-.88-.39c-.47,0-.75.23-.75.53s.38.44.8.54,1.08.27,1.08.9-.38.88-1.12.88a1.43,1.43,0,0,1-1.14-.47Z" style="fill: #fff"/>
        <path d="M54.85,21.15H57A1.08,1.08,0,0,0,55.93,20,1.12,1.12,0,0,0,54.85,21.15Zm1.09-1.41a1.42,1.42,0,0,1,1.4,1.57v.09H54.85A1.15,1.15,0,0,0,56,22.58a1.33,1.33,0,0,0,1-.41l.16.21a1.51,1.51,0,0,1-1.16.48,1.56,1.56,0,0,1-.05-3.12Z" style="fill: #fff"/>
        <path d="M60.11,21.55a1.1,1.1,0,0,0-.89-.41.74.74,0,1,0,0,1.47,1.1,1.1,0,0,0,.89-.41Zm0,.88a1.27,1.27,0,0,1-1,.43,1,1,0,0,1-1-1,1,1,0,0,1,1-1,1.27,1.27,0,0,1,1,.42V20.7a.71.71,0,0,0-.8-.68,1.15,1.15,0,0,0-.92.44l-.18-.22a1.45,1.45,0,0,1,1.14-.5c.6,0,1.08.29,1.08,1v2.09h-.32Z" style="fill: #fff"/>
        <path d="M61.49,19.81h.32v.51a1.29,1.29,0,0,1,1-.57v.35h-.16a1.14,1.14,0,0,0-.85.53v2.16h-.32Z" style="fill: #fff"/>
        <path d="M64.78,19.74a1.23,1.23,0,0,1,1,.5l-.22.2A1,1,0,0,0,64.8,20a1.14,1.14,0,0,0-1.12,1.27,1.15,1.15,0,0,0,1.12,1.27,1,1,0,0,0,.81-.42l.22.2a1.21,1.21,0,0,1-1,.51,1.56,1.56,0,0,1,0-3.12Z" style="fill: #fff"/>
        <path d="M68.61,20.76c0-.57-.29-.73-.72-.73a1.26,1.26,0,0,0-1,.51v2.24h-.32v-4.1h.32v1.58A1.49,1.49,0,0,1,68,19.74a.82.82,0,0,1,.93,1v2.09h-.32v-2Z" style="fill: #fff"/>
      </g>
    </g>
  </g>
</svg>
